<?xml version="1.0" standalone="no"?>
<!DOCTYPE svg PUBLIC "-//W3C//DTD SVG 1.1//EN" "http://www.w3.org/Graphics/SVG/1.1/DTD/svg11.dtd">
<svg version="1.1" xmlns="http://www.w3.org/2000/svg" viewBox="0 0 958.848903465778 556.1528172266057" width="958.848903465778" height="556.1528172266057"><!-- svg-source:excalidraw --><metadata></metadata><defs><style class="style-fonts">
      </style></defs><g stroke-linecap="round" transform="translate(10 35.175925503987855) rotate(0 451.25000000000006 212.7083333333328)"><path d="M-0.82 3.07 L902.64 -3.11 L906.23 425.7 L2.48 423.59" stroke="none" stroke-width="0" fill="#ff8787"></path><path d="M-0.34 -0.42 C284.84 -5.87, 570.47 -6.9, 904.06 -0.07 M0.24 -0.6 C239.72 -5.13, 481.34 -5.31, 902.68 -0.25 M901.56 2.07 C900.43 109.6, 903.88 222.38, 900.53 426.91 M903.19 -0.54 C903.01 165.84, 903.81 333.07, 902.54 425.99 M901.89 426.35 C624.52 424.36, 347.07 422.27, -0.98 425.64 M902.64 425.65 C551.2 418.58, 199.17 418.52, 0.24 424.78 M0.12 424.41 C2.29 305.71, 2.28 190.72, 0.95 0.76 M-0.6 425.27 C0.11 255.94, -0.26 86.43, -0.26 -0.15" stroke="transparent" stroke-width="1" fill="none"></path></g><g transform="translate(39.57301038576816 33.418360099536585) rotate(356.96279076704826 448.4713827619137 244.6580485137663)"><text x="0" y="49.267140740715" font-family="Excalifont, Xiaolai, sans-serif, Segoe UI Emoji" font-size="55.92183966028944px" fill="#e03131" text-anchor="start" style="white-space: pre;" direction="ltr" dominant-baseline="alphabetic">💗💗💗💗💗💗💗💗💗💗💗</text><text x="0" y="119.16944031607682" font-family="Excalifont, Xiaolai, sans-serif, Segoe UI Emoji" font-size="55.92183966028944px" fill="#e03131" text-anchor="start" style="white-space: pre;" direction="ltr" dominant-baseline="alphabetic">💗💗💗💗💗💗💗💗💗💗💗</text><text x="0" y="189.07173989143863" font-family="Excalifont, Xiaolai, sans-serif, Segoe UI Emoji" font-size="55.92183966028944px" fill="#e03131" text-anchor="start" style="white-space: pre;" direction="ltr" dominant-baseline="alphabetic">💗💗💗💗💗💗💗💗💗💗💗</text><text x="0" y="258.97403946680043" font-family="Excalifont, Xiaolai, sans-serif, Segoe UI Emoji" font-size="55.92183966028944px" fill="#e03131" text-anchor="start" style="white-space: pre;" direction="ltr" dominant-baseline="alphabetic">💗💗💗💗💗💗💗💗💗💗💗</text><text x="0" y="328.8763390421622" font-family="Excalifont, Xiaolai, sans-serif, Segoe UI Emoji" font-size="55.92183966028944px" fill="#e03131" text-anchor="start" style="white-space: pre;" direction="ltr" dominant-baseline="alphabetic">💗💗💗💗💗💗💗💗💗💗💗</text><text x="0" y="398.778638617524" font-family="Excalifont, Xiaolai, sans-serif, Segoe UI Emoji" font-size="55.92183966028944px" fill="#e03131" text-anchor="start" style="white-space: pre;" direction="ltr" dominant-baseline="alphabetic">💗💗💗💗💗💗💗💗💗💗💗</text><text x="0" y="468.68093819288583" font-family="Excalifont, Xiaolai, sans-serif, Segoe UI Emoji" font-size="55.92183966028944px" fill="#e03131" text-anchor="start" style="white-space: pre;" direction="ltr" dominant-baseline="alphabetic"></text></g></svg>